<?xml version="1.0" standalone="yes"?>

<svg version="1.1" viewBox="0.0 0.0 100.0 100.0" fill="none" stroke="none" stroke-linecap="square" stroke-miterlimit="10" xmlns="http://www.w3.org/2000/svg" xmlns:xlink="http://www.w3.org/1999/xlink"><clipPath id="p.0"><path d="m0 0l100.0 0l0 100.0l-100.0 0l0 -100.0z" clip-rule="nonzero"></path></clipPath><g clip-path="url(#p.0)"><path fill="#000000" fill-opacity="0.0" d="m0 0l100.0 0l0 100.0l-100.0 0z" fill-rule="nonzero"></path><path fill="#000000" d="m29.834475 18.227182l20.197023 20.197023l20.197018 -20.197023l11.592903 11.592897l-20.197025 20.197021l20.197025 20.197025l-11.592903 11.5928955l-20.197018 -20.197025l-20.197023 20.197025l-11.592897 -11.5928955l20.197021 -20.197025l-20.197021 -20.197021z" fill-rule="nonzero"></path><path stroke="#000000" stroke-width="8.0" stroke-linejoin="round" stroke-linecap="butt" d="m29.834475 18.227182l20.197023 20.197023l20.197018 -20.197023l11.592903 11.592897l-20.197025 20.197021l20.197025 20.197025l-11.592903 11.5928955l-20.197018 -20.197025l-20.197023 20.197025l-11.592897 -11.5928955l20.197021 -20.197025l-20.197021 -20.197021z" fill-rule="nonzero"></path></g></svg>

