<?xml version="1.0" standalone="yes"?>

<svg version="1.1" viewBox="0.0 0.0 100.0 100.0" fill="none" stroke="none" stroke-linecap="square" stroke-miterlimit="10" xmlns="http://www.w3.org/2000/svg" xmlns:xlink="http://www.w3.org/1999/xlink"><clipPath id="p.0"><path d="m0 0l100.0 0l0 100.0l-100.0 0l0 -100.0z" clip-rule="nonzero"></path></clipPath><g clip-path="url(#p.0)"><path fill="#000000" fill-opacity="0.0" d="m0 0l100.0 0l0 100.0l-100.0 0z" fill-rule="nonzero"></path><path fill="#000000" d="m23.42012 74.69625l0 0c4.882168 -9.721191 14.681198 -16.002308 25.552956 -16.379272c10.8717575 -0.37696457 21.082306 5.2103386 26.626083 14.57003l-3.4272003 2.0299377l0 0c-4.8014603 -8.106422 -13.644825 -12.945587 -23.060852 -12.619099c-9.416027 0.3264885 -17.902967 5.7665596 -22.131414 14.186085z" fill-rule="nonzero"></path><path stroke="#000000" stroke-width="8.0" stroke-linejoin="round" stroke-linecap="butt" d="m23.42012 74.69625l0 0c4.882168 -9.721191 14.681198 -16.002308 25.552956 -16.379272c10.8717575 -0.37696457 21.082306 5.2103386 26.626083 14.57003l-3.4272003 2.0299377l0 0c-4.8014603 -8.106422 -13.644825 -12.945587 -23.060852 -12.619099c-9.416027 0.3264885 -17.902967 5.7665596 -22.131414 14.186085z" fill-rule="nonzero"></path><path fill="#000000" d="m14.050885 55.532593l0 0c6.510436 -12.746853 20.002583 -20.981335 34.957996 -21.335445c14.955414 -0.35411453 28.865807 7.231533 36.041664 19.654324l-3.3572006 1.736824l0 0c-6.511879 -11.140278 -19.083347 -17.934837 -32.593117 -17.615753c-13.509773 0.31908417 -25.702988 7.698559 -31.61245 19.132214z" fill-rule="nonzero"></path><path stroke="#000000" stroke-width="8.0" stroke-linejoin="round" stroke-linecap="butt" d="m14.050885 55.532593l0 0c6.510436 -12.746853 20.002583 -20.981335 34.957996 -21.335445c14.955414 -0.35411453 28.865807 7.231533 36.041664 19.654324l-3.3572006 1.736824l0 0c-6.511879 -11.140278 -19.083347 -17.934837 -32.593117 -17.615753c-13.509773 0.31908417 -25.702988 7.698559 -31.61245 19.132214z" fill-rule="nonzero"></path><path fill="#000000" d="m3.6590157 37.168915l0 0c7.5412636 -14.215088 25.673214 -23.579338 45.9116 -23.711052c20.238384 -0.13171482 38.580418 8.995157 46.443546 23.109993l-2.9058075 0.92729187l0 0c-7.4714813 -12.865936 -24.622734 -21.155611 -43.517864 -21.03339c-18.895134 0.12222099 -35.848633 8.6325 -43.016113 21.593124z" fill-rule="nonzero"></path><path stroke="#000000" stroke-width="8.0" stroke-linejoin="round" stroke-linecap="butt" d="m3.6590157 37.168915l0 0c7.5412636 -14.215088 25.673214 -23.579338 45.9116 -23.711052c20.238384 -0.13171482 38.580418 8.995157 46.443546 23.109993l-2.9058075 0.92729187l0 0c-7.4714813 -12.865936 -24.622734 -21.155611 -43.517864 -21.03339c-18.895134 0.12222099 -35.848633 8.6325 -43.016113 21.593124z" fill-rule="nonzero"></path><path fill="#000000" d="m42.354237 86.448715l0 0c0 -4.2269287 3.4266052 -7.6535416 7.6535416 -7.6535416l0 0c2.0298462 0 3.9765549 0.80635834 5.411873 2.2416687c1.435318 1.435318 2.2416687 3.3820267 2.2416687 5.411873l0 0c0 4.2269363 -3.4266052 7.653549 -7.6535416 7.653549l0 0c-4.2269363 0 -7.6535416 -3.4266129 -7.6535416 -7.653549z" fill-rule="nonzero"></path></g></svg>

