<?xml version="1.0" standalone="yes"?>

<svg version="1.1" viewBox="0.0 0.0 100.0 100.0" fill="none" stroke="none" stroke-linecap="square" stroke-miterlimit="10" xmlns="http://www.w3.org/2000/svg" xmlns:xlink="http://www.w3.org/1999/xlink">
    <clipPath id="p.0">
        <path d="m0 0l100.0 0l0 100.0l-100.0 0l0 -100.0z" clip-rule="nonzero"></path>
    </clipPath>
    <g clip-path="url(#p.0)">
        <path fill="#000000" fill-opacity="0.0" d="m0 0l100.0 0l0 100.0l-100.0 0z" fill-rule="nonzero"></path>
        <path fill="#ffffff" d="m10.0 61.84646l24.0 -16.0l16.0 16.0l24.0 -16.0l16.0 16.0l-48.0 32.0z" fill-rule="nonzero"></path>
        <path stroke="#000000" stroke-width="4.0" stroke-linejoin="round" stroke-linecap="butt" d="m10.0 61.84646l24.0 -16.0l16.0 16.0l24.0 -16.0l16.0 16.0l-48.0 32.0z" fill-rule="nonzero"></path>
        <path fill="#ffffff" d="m10.0 41.103676l24.0 -16.000002l16.0 16.000002l24.0 -16.000002l16.0 16.000002l-48.0 32.0z" fill-rule="nonzero"></path>
        <path stroke="#000000" stroke-width="4.0" stroke-linejoin="round" stroke-linecap="butt" d="m10.0 41.103676l24.0 -16.000002l16.0 16.000002l24.0 -16.000002l16.0 16.000002l-48.0 32.0z" fill-rule="nonzero"></path>
        <path fill="#ffffff" d="m10.0 22.153543l24.0 -16.0l16.0 16.0l24.0 -16.0l16.0 16.0l-48.0 31.999998z" fill-rule="nonzero"></path>
        <path stroke="#000000" stroke-width="4.0" stroke-linejoin="round" stroke-linecap="butt" d="m10.0 22.153543l24.0 -16.0l16.0 16.0l24.0 -16.0l16.0 16.0l-48.0 31.999998z" fill-rule="nonzero"></path>
    </g>
</svg>

