<?xml version="1.0" standalone="yes"?>

<svg version="1.1" viewBox="0.0 0.0 100.0 100.0" fill="none" stroke="none" stroke-linecap="square" stroke-miterlimit="10" xmlns="http://www.w3.org/2000/svg" xmlns:xlink="http://www.w3.org/1999/xlink"><clipPath id="p.0"><path d="m0 0l100.0 0l0 100.0l-100.0 0l0 -100.0z" clip-rule="nonzero"></path></clipPath><g clip-path="url(#p.0)"><path fill="#000000" fill-opacity="0.0" d="m0 0l100.0 0l0 100.0l-100.0 0z" fill-rule="nonzero"></path><path fill="#000000" d="m12.77242 8.772398l17.937008 17.937008l8.717119 -8.717121l0 21.44882l-21.448818 0l8.717123 -8.717123l-17.937008 -17.937008z" fill-rule="nonzero"></path><path stroke="#000000" stroke-width="2.0" stroke-linejoin="round" stroke-linecap="butt" d="m12.77242 8.772398l17.937008 17.937008l8.717119 -8.717121l0 21.44882l-21.448818 0l8.717123 -8.717123l-17.937008 -17.937008z" fill-rule="nonzero"></path><path fill="#000000" d="m87.25579 91.27037l-17.937004 -17.937012l-8.717121 8.717125l0 -21.448818l21.448818 0l-8.717125 8.717121l17.937012 17.937004z" fill-rule="nonzero"></path><path stroke="#000000" stroke-width="2.0" stroke-linejoin="round" stroke-linecap="butt" d="m87.25579 91.27037l-17.937004 -17.937012l-8.717121 8.717125l0 -21.448818l21.448818 0l-8.717125 8.717121l17.937012 17.937004z" fill-rule="nonzero"></path><path fill="#000000" d="m91.2276 12.744205l-17.937004 17.937008l8.717117 8.717121l-21.448818 0l0 -21.448818l8.717121 8.717121l17.937012 -17.937008z" fill-rule="nonzero"></path><path stroke="#000000" stroke-width="2.0" stroke-linejoin="round" stroke-linecap="butt" d="m91.2276 12.744205l-17.937004 17.937008l8.717117 8.717121l-21.448818 0l0 -21.448818l8.717121 8.717121l17.937012 -17.937008z" fill-rule="nonzero"></path><path fill="#000000" d="m8.72963 87.22758l17.937008 -17.937004l-8.717121 -8.717121l21.448818 0l0 21.448818l-8.717121 -8.717125l-17.937008 17.937012z" fill-rule="nonzero"></path><path stroke="#000000" stroke-width="2.0" stroke-linejoin="round" stroke-linecap="butt" d="m8.72963 87.22758l17.937008 -17.937004l-8.717121 -8.717121l21.448818 0l0 21.448818l-8.717121 -8.717125l-17.937008 17.937012z" fill-rule="nonzero"></path></g></svg>

