<?xml version="1.0" standalone="yes"?>

<svg version="1.1" viewBox="0.0 0.0 100.0 100.0" fill="none" stroke="none" stroke-linecap="square" stroke-miterlimit="10" xmlns="http://www.w3.org/2000/svg" xmlns:xlink="http://www.w3.org/1999/xlink"><clipPath id="p.0"><path d="m0 0l100.0 0l0 100.0l-100.0 0l0 -100.0z" clip-rule="nonzero"></path></clipPath><g clip-path="url(#p.0)"><path fill="#000000" fill-opacity="0.0" d="m0 0l100.0 0l0 100.0l-100.0 0z" fill-rule="nonzero"></path><path fill="#000000" d="m13.795276 37.808205l0 0c0 -0.8507881 0.6897001 -1.5404892 1.5404873 -1.5404892l68.63556 0c0.4085617 0 0.80039215 0.16230011 1.0892944 0.45119858c0.28889465 0.28889847 0.45119476 0.6807289 0.45119476 1.0892906l0 24.38359c0 0.8507881 -0.68969727 1.5404892 -1.5404892 1.5404892l-68.63556 0c-0.85078716 0 -1.5404873 -0.6897011 -1.5404873 -1.5404892z" fill-rule="nonzero"></path><path stroke="#000000" stroke-width="2.0" stroke-linejoin="round" stroke-linecap="butt" d="m13.795276 37.808205l0 0c0 -0.8507881 0.6897001 -1.5404892 1.5404873 -1.5404892l68.63556 0c0.4085617 0 0.80039215 0.16230011 1.0892944 0.45119858c0.28889465 0.28889847 0.45119476 0.6807289 0.45119476 1.0892906l0 24.38359c0 0.8507881 -0.68969727 1.5404892 -1.5404892 1.5404892l-68.63556 0c-0.85078716 0 -1.5404873 -0.6897011 -1.5404873 -1.5404892z" fill-rule="nonzero"></path></g></svg>

