<?xml version="1.0" standalone="yes"?>

<svg version="1.1" viewBox="0.0 0.0 723.0 722.0" fill="none" stroke="none" stroke-linecap="square" stroke-miterlimit="10" xmlns="http://www.w3.org/2000/svg" xmlns:xlink="http://www.w3.org/1999/xlink"><clipPath id="p.0"><path d="m0 0l723.0 0l0 722.0l-723.0 0l0 -722.0z" clip-rule="nonzero"></path></clipPath><g clip-path="url(#p.0)"><path fill="#000000" fill-opacity="0.0" d="m0 0l723.1706 0l0 722.1155l-723.1706 0z" fill-rule="nonzero"></path><path fill="#000000" d="m105.39752 299.0506l0 0c106.94101 0 193.63385 -86.69281 193.63385 -193.63382l125.18094 0l0 0c0 106.94102 86.69281 193.63382 193.63382 193.63382l0 125.18097l0 0c-106.94101 0 -193.63382 86.69281 -193.63382 193.63385l-125.18094 0c0 -106.94104 -86.69284 -193.63385 -193.63385 -193.63385z" fill-rule="nonzero"></path><path stroke="#000000" stroke-width="8.0" stroke-linejoin="round" stroke-linecap="butt" d="m105.39752 299.0506l0 0c106.94101 0 193.63385 -86.69281 193.63385 -193.63382l125.18094 0l0 0c0 106.94102 86.69281 193.63382 193.63382 193.63382l0 125.18097l0 0c-106.94101 0 -193.63382 86.69281 -193.63382 193.63385l-125.18094 0c0 -106.94104 -86.69284 -193.63385 -193.63385 -193.63385z" fill-rule="nonzero"></path><path fill="#000000" d="m224.71086 136.19617l0 0c75.613846 75.61383 198.20811 75.61383 273.82196 0l88.51059 88.51059l0 0c-75.61383 75.61383 -75.61383 198.2081 0 273.82196l-88.51059 88.51059l0 0c-75.61383 -75.61386 -198.2081 -75.61386 -273.82196 0l-88.510605 -88.51059c75.613846 -75.61386 75.613846 -198.20813 0 -273.82196z" fill-rule="nonzero"></path><path stroke="#000000" stroke-width="8.0" stroke-linejoin="round" stroke-linecap="butt" d="m224.71086 136.19617l0 0c75.613846 75.61383 198.20811 75.61383 273.82196 0l88.51059 88.51059l0 0c-75.61383 75.61383 -75.61383 198.2081 0 273.82196l-88.51059 88.51059l0 0c-75.61383 -75.61386 -198.2081 -75.61386 -273.82196 0l-88.510605 -88.51059c75.613846 -75.61386 75.613846 -198.20813 0 -273.82196z" fill-rule="nonzero"></path><path fill="#ffffff" d="m271.87296 361.60522l0 0c0 -49.55777 40.1745 -89.73227 89.73227 -89.73227l0 0c23.798492 0 46.622253 9.453888 63.450317 26.281982c16.828064 16.828064 26.281982 39.651825 26.281982 63.450287l0 0c0 49.55777 -40.17453 89.7323 -89.7323 89.7323l0 0c-49.55777 0 -89.73227 -40.17453 -89.73227 -89.7323z" fill-rule="nonzero"></path></g></svg>

