<?xml version="1.0" standalone="yes"?>

<svg version="1.1" viewBox="0.0 0.0 100.0 100.0" fill="none" stroke="none" stroke-linecap="square" stroke-miterlimit="10" xmlns="http://www.w3.org/2000/svg" xmlns:xlink="http://www.w3.org/1999/xlink"><clipPath id="p.0"><path d="m0 0l100.0 0l0 100.0l-100.0 0l0 -100.0z" clip-rule="nonzero"></path></clipPath><g clip-path="url(#p.0)"><path fill="#000000" fill-opacity="0.0" d="m0 0l100.0 0l0 100.0l-100.0 0z" fill-rule="nonzero"></path><path fill="#000000" d="m15.401575 37.228336l21.826761 0l0 -21.826761l25.543327 0l0 21.826761l21.826763 0l0 25.543327l-21.826763 0l0 21.826763l-25.543327 0l0 -21.826763l-21.826761 0z" fill-rule="nonzero"></path><path stroke="#000000" stroke-width="4.0" stroke-linejoin="round" stroke-linecap="butt" d="m15.401575 37.228336l21.826761 0l0 -21.826761l25.543327 0l0 21.826761l21.826763 0l0 25.543327l-21.826763 0l0 21.826763l-25.543327 0l0 -21.826763l-21.826761 0z" fill-rule="nonzero"></path></g></svg>

