<?xml version="1.0" standalone="yes"?>

<svg version="1.1" viewBox="0.0 0.0 723.0 722.0" fill="none" stroke="none" stroke-linecap="square" stroke-miterlimit="10" xmlns="http://www.w3.org/2000/svg" xmlns:xlink="http://www.w3.org/1999/xlink"><clipPath id="p.0"><path d="m0 0l723.0 0l0 722.0l-723.0 0l0 -722.0z" clip-rule="nonzero"></path></clipPath><g clip-path="url(#p.0)"><path fill="#000000" fill-opacity="0.0" d="m0 0l723.1706 0l0 722.1155l-723.1706 0z" fill-rule="nonzero"></path><path fill="#000000" d="m248.55147 240.47525l0 0c0 -129.73907 105.20955 -234.91339 234.99211 -234.91339l0 0c62.32379 0 122.09497 24.749731 166.16455 68.804535c44.06958 44.05481 68.827576 103.80595 68.827576 166.10886l0 0c0 129.73907 -105.20953 234.91339 -234.99213 234.91339l0 0c-129.78256 0 -234.99211 -105.17432 -234.99211 -234.91339z" fill-rule="nonzero"></path><path stroke="#000000" stroke-width="8.0" stroke-linejoin="round" stroke-linecap="butt" d="m248.55147 240.47525l0 0c0 -129.73907 105.20955 -234.91339 234.99211 -234.91339l0 0c62.32379 0 122.09497 24.749731 166.16455 68.804535c44.06958 44.05481 68.827576 103.80595 68.827576 166.10886l0 0c0 129.73907 -105.20953 234.91339 -234.99213 234.91339l0 0c-129.78256 0 -234.99211 -105.17432 -234.99211 -234.91339z" fill-rule="nonzero"></path><path fill="#ffffff" d="m352.5987 240.47525l0 0c0 -72.26668 58.626038 -130.8504 130.94489 -130.8504l0 0c34.72876 0 68.035095 13.785988 92.59204 38.325188c24.556885 24.539215 38.352844 57.821518 38.352844 92.52521l0 0c0 72.26666 -58.626038 130.8504 -130.94489 130.8504l0 0c-72.31885 0 -130.94489 -58.58374 -130.94489 -130.8504z" fill-rule="nonzero"></path><path stroke="#000000" stroke-width="2.0" stroke-linejoin="round" stroke-linecap="butt" d="m352.5987 240.47525l0 0c0 -72.26668 58.626038 -130.8504 130.94489 -130.8504l0 0c34.72876 0 68.035095 13.785988 92.59204 38.325188c24.556885 24.539215 38.352844 57.821518 38.352844 92.52521l0 0c0 72.26666 -58.626038 130.8504 -130.94489 130.8504l0 0c-72.31885 0 -130.94489 -58.58374 -130.94489 -130.8504z" fill-rule="nonzero"></path><path fill="#000000" d="m293.00513 341.83862l87.968506 87.968506l-288.34647 288.3465l-87.968506 -87.968506z" fill-rule="nonzero"></path><path stroke="#000000" stroke-width="8.0" stroke-linejoin="round" stroke-linecap="butt" d="m293.00513 341.83862l87.968506 87.968506l-288.34647 288.3465l-87.968506 -87.968506z" fill-rule="nonzero"></path></g></svg>

