<?xml version="1.0" standalone="yes"?>

<svg version="1.1" viewBox="0.0 0.0 723.0 722.0" fill="none" stroke="none" stroke-linecap="square" stroke-miterlimit="10" xmlns="http://www.w3.org/2000/svg" xmlns:xlink="http://www.w3.org/1999/xlink"><clipPath id="p.0"><path d="m0 0l723.0 0l0 722.0l-723.0 0l0 -722.0z" clip-rule="nonzero"></path></clipPath><g clip-path="url(#p.0)"><path fill="#000000" fill-opacity="0.0" d="m0 0l723.1706 0l0 722.1155l-723.1706 0z" fill-rule="nonzero"></path><path fill="#000000" d="m356.24496 283.7425l65.52338 65.52338l-304.4768 304.4768l-65.52337 -65.52338z" fill-rule="nonzero"></path><path stroke="#000000" stroke-width="8.0" stroke-linejoin="round" stroke-linecap="butt" d="m356.24496 283.7425l65.52338 65.52338l-304.4768 304.4768l-65.52337 -65.52338z" fill-rule="nonzero"></path><path fill="#000000" d="m622.6222 50.860954l32.02771 32.027718l-249.6294 249.62936l-32.02771 -32.02771z" fill-rule="nonzero"></path><path stroke="#000000" stroke-width="8.0" stroke-linejoin="round" stroke-linecap="butt" d="m622.6222 50.860954l32.02771 32.027718l-249.6294 249.62936l-32.02771 -32.02771z" fill-rule="nonzero"></path><path fill="#000000" d="m148.52415 46.70117l0 0c46.107513 -3.9781532 89.8638 20.997398 109.88524 62.721146c20.021393 41.72374 12.127594 91.48396 -19.823776 124.962875c-31.95137 33.478943 -81.28897 43.68634 -123.90161 25.63385c-42.612633 -18.05246 -69.60297 -60.595535 -67.78087 -106.838455l111.186066 4.3810577z" fill-rule="nonzero"></path><path stroke="#000000" stroke-width="8.0" stroke-linejoin="round" stroke-linecap="butt" d="m148.52415 46.70117l0 0c46.107513 -3.9781532 89.8638 20.997398 109.88524 62.721146c20.021393 41.72374 12.127594 91.48396 -19.823776 124.962875c-31.95137 33.478943 -81.28897 43.68634 -123.90161 25.63385c-42.612633 -18.05246 -69.60297 -60.595535 -67.78087 -106.838455l111.186066 4.3810577z" fill-rule="nonzero"></path><path fill="#000000" d="m220.75676 252.25693l32.027725 -32.027725l249.62936 249.62935l-32.02771 32.02774z" fill-rule="nonzero"></path><path stroke="#000000" stroke-width="8.0" stroke-linejoin="round" stroke-linecap="butt" d="m220.75676 252.25693l32.027725 -32.027725l249.62936 249.62935l-32.02771 32.02774z" fill-rule="nonzero"></path><path fill="#000000" d="m675.1645 580.7787l0 0c6.911072 -46.890503 -16.639404 -93.012146 -58.674805 -114.90979c-42.0354 -21.897644 -93.328186 -14.764343 -127.793365 17.772308c-34.46518 32.53665 -44.537018 83.3342 -25.093445 126.55954c19.443573 43.22534 64.13425 69.38971 111.344696 65.187195l-9.86615 -110.83411z" fill-rule="nonzero"></path><path stroke="#000000" stroke-width="8.0" stroke-linejoin="round" stroke-linecap="butt" d="m675.1645 580.7787l0 0c6.911072 -46.890503 -16.639404 -93.012146 -58.674805 -114.90979c-42.0354 -21.897644 -93.328186 -14.764343 -127.793365 17.772308c-34.46518 32.53665 -44.537018 83.3342 -25.093445 126.55954c19.443573 43.22534 64.13425 69.38971 111.344696 65.187195l-9.86615 -110.83411z" fill-rule="nonzero"></path></g></svg>

